<?xml version="1.0" standalone="no"?><!DOCTYPE svg PUBLIC "-//W3C//DTD SVG 1.1//EN" "http://www.w3.org/Graphics/SVG/1.1/DTD/svg11.dtd"><svg t="1591863717290" class="icon" viewBox="0 0 1024 1024" version="1.1" xmlns="http://www.w3.org/2000/svg" p-id="2438" xmlns:xlink="http://www.w3.org/1999/xlink" width="200" height="200"><defs><style type="text/css"></style></defs><path d="M128 64h768a64 64 0 0 1 64 64v192a64 64 0 0 1-64 64H128a64 64 0 0 1-64-64V128a64 64 0 0 1 64-64z m32 64a32 32 0 0 0-32 32v128a32 32 0 0 0 32 32h704a32 32 0 0 0 32-32V160a32 32 0 0 0-32-32H160z m576 32h64a32 32 0 0 1 32 32v64a32 32 0 0 1-32 32h-64a32 32 0 0 1-32-32V192a32 32 0 0 1 32-32zM128 448h768a64 64 0 0 1 64 64v384a64 64 0 0 1-64 64H128a64 64 0 0 1-64-64V512a64 64 0 0 1 64-64z m32 64a32 32 0 0 0-32 32v320a32 32 0 0 0 32 32h704a32 32 0 0 0 32-32V544a32 32 0 0 0-32-32H160z m96 32a32 32 0 0 1 32 32v256a32 32 0 0 1-64 0v-256a32 32 0 0 1 32-32z m128 0a32 32 0 0 1 32 32v256a32 32 0 0 1-64 0v-256a32 32 0 0 1 32-32z m128 0a32 32 0 0 1 32 32v256a32 32 0 0 1-64 0v-256a32 32 0 0 1 32-32z m128 0a32 32 0 0 1 32 32v256a32 32 0 0 1-64 0v-256a32 32 0 0 1 32-32z m128 0a32 32 0 0 1 32 32v256a32 32 0 0 1-64 0v-256a32 32 0 0 1 32-32z" fill="#333333" p-id="2439"></path></svg>